<svg width="176" height="54" viewBox="0 0 176 54" fill="none" xmlns="http://www.w3.org/2000/svg">
<path d="M74.2656 37.1406C74.2656 38.5078 73.9206 39.6602 73.2305 40.5977C72.5534 41.5221 71.5768 42.2188 70.3008 42.6875C69.0378 43.1562 67.5273 43.3906 65.7695 43.3906C64.2721 43.3906 62.9766 43.2734 61.8828 43.0391C60.7891 42.8047 59.832 42.4727 59.0117 42.043V39.0547C59.8841 39.4844 60.9258 39.875 62.1367 40.2266C63.3477 40.5781 64.5846 40.7539 65.8477 40.7539C67.6966 40.7539 69.0378 40.4544 69.8711 39.8555C70.7044 39.2565 71.1211 38.4427 71.1211 37.4141C71.1211 36.8281 70.9518 36.3138 70.6133 35.8711C70.2878 35.4154 69.7344 34.9792 68.9531 34.5625C68.1719 34.1328 67.0911 33.6641 65.7109 33.1562C64.3438 32.6354 63.1589 32.1211 62.1562 31.6133C61.1667 31.0924 60.3984 30.4609 59.8516 29.7188C59.3177 28.9766 59.0508 28.013 59.0508 26.8281C59.0508 25.0182 59.7799 23.6315 61.2383 22.668C62.7096 21.6914 64.6367 21.2031 67.0195 21.2031C68.3086 21.2031 69.513 21.3333 70.6328 21.5938C71.7656 21.8411 72.8203 22.1797 73.7969 22.6094L72.7031 25.207C71.8177 24.8294 70.8737 24.5104 69.8711 24.25C68.8685 23.9896 67.8464 23.8594 66.8047 23.8594C65.3073 23.8594 64.1549 24.1068 63.3477 24.6016C62.5534 25.0964 62.1562 25.7734 62.1562 26.6328C62.1562 27.2969 62.3385 27.8438 62.7031 28.2734C63.0807 28.7031 63.6797 29.1068 64.5 29.4844C65.3203 29.862 66.401 30.3047 67.7422 30.8125C69.0833 31.3073 70.2422 31.8216 71.2188 32.3555C72.1953 32.8763 72.944 33.5143 73.4648 34.2695C73.9987 35.0117 74.2656 35.9688 74.2656 37.1406ZM82.7422 43H79.4805V12.6094H82.7422V43ZM97.6055 21.2422C100.158 21.2422 102.052 21.8151 103.289 22.9609C104.526 24.1068 105.145 25.9362 105.145 28.4492V43H102.781L102.156 39.8359H102C101.401 40.6172 100.776 41.2747 100.125 41.8086C99.474 42.3294 98.7188 42.7266 97.8594 43C97.013 43.2604 95.9714 43.3906 94.7344 43.3906C93.4323 43.3906 92.2734 43.1628 91.2578 42.707C90.2552 42.2513 89.4609 41.5612 88.875 40.6367C88.3021 39.7122 88.0156 38.5404 88.0156 37.1211C88.0156 34.9857 88.862 33.3451 90.5547 32.1992C92.2474 31.0534 94.8255 30.4284 98.2891 30.3242L101.98 30.168V28.8594C101.98 27.0104 101.583 25.7148 100.789 24.9727C99.9948 24.2305 98.875 23.8594 97.4297 23.8594C96.3099 23.8594 95.2422 24.0221 94.2266 24.3477C93.2109 24.6732 92.2474 25.0573 91.3359 25.5L90.3398 23.0391C91.3034 22.5443 92.4102 22.1211 93.6602 21.7695C94.9102 21.418 96.2253 21.2422 97.6055 21.2422ZM101.941 32.4531L98.6797 32.5898C96.0104 32.694 94.1289 33.1302 93.0352 33.8984C91.9414 34.6667 91.3945 35.7539 91.3945 37.1602C91.3945 38.3841 91.7656 39.2891 92.5078 39.875C93.25 40.4609 94.2331 40.7539 95.457 40.7539C97.3581 40.7539 98.9141 40.2266 100.125 39.1719C101.336 38.1172 101.941 36.5352 101.941 34.4258V32.4531ZM121.961 21.2031C124.5 21.2031 126.421 21.8281 127.723 23.0781C129.025 24.3151 129.676 26.3073 129.676 29.0547V43H126.473V29.2695C126.473 27.4857 126.062 26.151 125.242 25.2656C124.435 24.3802 123.191 23.9375 121.512 23.9375C119.142 23.9375 117.475 24.6081 116.512 25.9492C115.548 27.2904 115.066 29.237 115.066 31.7891V43H111.824V21.5938H114.441L114.93 24.6797H115.105C115.561 23.9245 116.141 23.293 116.844 22.7852C117.547 22.2643 118.335 21.8737 119.207 21.6133C120.079 21.3398 120.997 21.2031 121.961 21.2031Z" fill="#7A77FF"/>
<path d="M142.449 52.6094C139.402 52.6094 137.072 52.0755 135.457 51.0078C133.855 49.9531 133.055 48.4688 133.055 46.5547C133.055 45.2396 133.465 44.1393 134.285 43.2539C135.105 42.3685 136.31 41.737 137.898 41.3594C137.286 41.099 136.753 40.6758 136.297 40.0898C135.841 39.4909 135.613 38.8594 135.613 38.1953C135.613 37.362 135.854 36.6719 136.336 36.125C136.818 35.5651 137.514 35.0182 138.426 34.4844C137.28 33.9896 136.368 33.1953 135.691 32.1016C135.027 31.0078 134.695 29.7188 134.695 28.2344C134.695 26.6458 135.04 25.2982 135.73 24.1914C136.434 23.0716 137.449 22.2188 138.777 21.6328C140.118 21.0469 141.746 20.7539 143.66 20.7539C144.064 20.7539 144.533 20.7799 145.066 20.832C145.6 20.8841 146.089 20.9427 146.531 21.0078C146.987 21.0729 147.293 21.125 147.449 21.1641H155.066V24.1914L151.648 25.0703C151.961 25.5521 152.195 26.0664 152.352 26.6133C152.508 27.1602 152.586 27.7396 152.586 28.3516C152.586 30.6953 151.766 32.5247 150.125 33.8398C148.497 35.1419 146.232 35.793 143.328 35.793C142.638 35.7539 141.987 35.7018 141.375 35.6367C141.076 35.8711 140.848 36.1185 140.691 36.3789C140.535 36.6393 140.457 36.9128 140.457 37.1992C140.457 37.4857 140.574 37.7266 140.809 37.9219C141.056 38.1042 141.421 38.2474 141.902 38.3516C142.397 38.4427 143.009 38.4883 143.738 38.4883H147.449C149.845 38.4883 151.668 39.0026 152.918 40.0312C154.181 41.0599 154.812 42.5703 154.812 44.5625C154.812 47.1146 153.745 49.0938 151.609 50.5C149.487 51.9062 146.434 52.6094 142.449 52.6094ZM142.703 48.7227C144.122 48.7227 145.34 48.5859 146.355 48.3125C147.384 48.0521 148.172 47.6745 148.719 47.1797C149.266 46.6979 149.539 46.1185 149.539 45.4414C149.539 44.8945 149.376 44.4583 149.051 44.1328C148.738 43.8203 148.257 43.599 147.605 43.4688C146.967 43.3385 146.147 43.2734 145.145 43.2734H142.059C141.329 43.2734 140.672 43.3906 140.086 43.625C139.513 43.8594 139.057 44.1849 138.719 44.6016C138.38 45.0312 138.211 45.526 138.211 46.0859C138.211 46.9062 138.602 47.5508 139.383 48.0195C140.177 48.4883 141.284 48.7227 142.703 48.7227ZM143.66 32.1602C144.78 32.1602 145.6 31.8151 146.121 31.125C146.642 30.4349 146.902 29.4974 146.902 28.3125C146.902 26.9974 146.629 26.0143 146.082 25.3633C145.548 24.6992 144.741 24.3672 143.66 24.3672C142.566 24.3672 141.746 24.6992 141.199 25.3633C140.652 26.0143 140.379 26.9974 140.379 28.3125C140.379 29.4974 140.646 30.4349 141.18 31.125C141.727 31.8151 142.553 32.1602 143.66 32.1602ZM173.875 43H156.629V39.4844L166.746 25.7148H157.234V21.1641H173.523V25.0312L163.68 38.4492H173.875V43Z" fill="#5D6ADF"/>
<ellipse cx="24" cy="28.5" rx="24" ry="24.5" fill="#5D6ADF"/>
</svg>
